<?xml version="1.0" encoding="UTF-8"?>
<svg width="1135px" height="499px" viewBox="0 0 1135 499" version="1.1" xmlns="http://www.w3.org/2000/svg" xmlns:xlink="http://www.w3.org/1999/xlink">
    <!-- Generator: Sketch 48.2 (47327) - http://www.bohemiancoding.com/sketch -->
    <title>webpack</title>
    <desc>Created with Sketch.</desc>
    <defs>
        <filter x="-0.5%" y="-0.6%" width="100.9%" height="101.6%" filterUnits="objectBoundingBox" id="filter-1">
            <feOffset dx="0" dy="2" in="SourceAlpha" result="shadowOffsetOuter1"></feOffset>
            <feGaussianBlur stdDeviation="2" in="shadowOffsetOuter1" result="shadowBlurOuter1"></feGaussianBlur>
            <feColorMatrix values="0 0 0 0 0   0 0 0 0 0   0 0 0 0 0  0 0 0 0.5 0" type="matrix" in="shadowBlurOuter1" result="shadowMatrixOuter1"></feColorMatrix>
            <feMerge>
                <feMergeNode in="shadowMatrixOuter1"></feMergeNode>
                <feMergeNode in="SourceGraphic"></feMergeNode>
            </feMerge>
        </filter>
    </defs>
    <g id="Page-1" stroke="none" stroke-width="1" fill="none" fill-rule="evenodd">
        <g id="webpack" filter="url(#filter-1)" transform="translate(4.000000, 2.000000)">
            <rect id="Rectangle" fill="#000000" x="0" y="0" width="1127" height="491"></rect>
            <text id="STATIC-ASSETS" fill="#86A5BA" font-family="Helvetica" font-size="18" font-weight="normal">
                <tspan x="953.778" y="369">STATIC ASSETS</tspan>
            </text>
            <g id="Group" transform="translate(1020.000000, 234.000000)">
                <g>
                    <g transform="translate(2.000000, 2.000000)"></g>
                    <rect id="Rectangle-path" stroke="#526B78" stroke-width="4" x="0" y="0" width="84" height="84" rx="3"></rect>
                </g>
                <g transform="translate(20.000000, 27.000000)" fill="#FFFFFF" font-family="Helvetica" font-size="22" font-weight="normal" id=".png">
                    <text>
                        <tspan x="0.891" y="21.7096774">.png</tspan>
                    </text>
                </g>
            </g>
            <g id="Group" transform="translate(1020.000000, 122.000000)">
                <g>
                    <g transform="translate(2.000000, 2.000000)"></g>
                    <rect id="Rectangle-path" stroke="#526B78" stroke-width="4" x="0" y="0" width="84" height="84" rx="3"></rect>
                </g>
                <g transform="translate(24.000000, 27.000000)" fill="#FFFFFF" font-family="Helvetica" font-size="22" font-weight="normal" id=".css">
                    <text>
                        <tspan x="0.532" y="21.7096774">.css</tspan>
                    </text>
                </g>
            </g>
            <g id="Group" transform="translate(912.000000, 234.000000)">
                <g>
                    <g transform="translate(2.000000, 2.000000)"></g>
                    <rect id="Rectangle-path" stroke="#526B78" stroke-width="4" x="0" y="0" width="84" height="84" rx="3"></rect>
                </g>
                <g transform="translate(23.000000, 27.000000)" fill="#FFFFFF" font-family="Helvetica" font-size="22" font-weight="normal" id=".jpg">
                    <text>
                        <tspan x="0.817" y="21.7096774">.jpg</tspan>
                    </text>
                </g>
            </g>
            <g id="Group" transform="translate(912.000000, 122.000000)">
                <g>
                    <g transform="translate(2.000000, 2.000000)"></g>
                    <rect id="Rectangle-path" stroke="#526B78" stroke-width="4" x="0" y="0" width="84" height="84" rx="3"></rect>
                </g>
                <g transform="translate(31.000000, 27.000000)" fill="#FFFFFF" font-family="Helvetica" font-size="22" font-weight="normal" id=".js">
                    <text>
                        <tspan x="0" y="21.7096774">.js</tspan>
                    </text>
                </g>
            </g>
            <g id="Group" transform="translate(362.000000, 135.000000)" stroke="#7E8C94" stroke-width="4">
                <path d="M499.558824,86.52 C499.558824,86.52 484.852941,81.02 439.908088,109.436667 C394.963235,137.853333 380.992647,164.436667 380.992647,164.436667" id="Shape" stroke-dasharray="7"></path>
                <path d="M499.558824,86.0616667 C499.558824,86.0616667 484.852941,91.5616667 439.908088,63.145 C394.963235,34.7283333 380.992647,8.145 380.992647,8.145" id="Shape" stroke-dasharray="7"></path>
                <path d="M0.477941176,170.395 C0.477941176,170.395 169.382939,98.895 447.847936,98.895" id="Shape_99_" stroke-dasharray="6"></path>
                <path d="M0.477941176,72.395 C0.477941176,72.395 169.382939,0.895 447.847936,0.895" id="Shape_99_" stroke-dasharray="6" transform="translate(224.162939, 36.645000) scale(-1, 1) rotate(-180.000000) translate(-224.162939, -36.645000) "></path>
            </g>
            <text id="MODULES-WITH-DEPENDENCIES" fill="#86A5BA" font-family="Helvetica" font-size="18" font-weight="normal">
                <tspan x="44.934" y="472">MODULES WITH DEPENDENCIES</tspan>
            </text>
            <g id="Group" transform="translate(246.000000, 243.000000)">
                <g>
                    <g transform="translate(2.000000, 2.000000)"></g>
                    <rect id="Rectangle-path" stroke="#526B78" stroke-width="4" x="0" y="0" width="66" height="66" rx="3"></rect>
                </g>
                <g transform="translate(14.000000, 19.000000)" fill="#FFFFFF" font-family="Helvetica" font-size="22" font-weight="normal" id=".jpg">
                    <text>
                        <tspan x="0.817" y="21">.jpg</tspan>
                    </text>
                </g>
            </g>
            <g id="Group" transform="translate(246.000000, 131.000000)">
                <g>
                    <g transform="translate(2.000000, 2.000000)"></g>
                    <rect id="Rectangle-path" stroke="#526B78" stroke-width="4" x="0" y="0" width="66" height="66" rx="3"></rect>
                </g>
                <g transform="translate(11.000000, 19.000000)" fill="#FFFFFF" font-family="Helvetica" font-size="22" font-weight="normal" id=".png">
                    <text>
                        <tspan x="0.891" y="21">.png</tspan>
                    </text>
                </g>
            </g>
            <g id="Group" transform="translate(242.000000, 324.500000) scale(-1, 1) rotate(-180.000000) translate(-242.000000, -324.500000) translate(202.000000, 314.000000)">
                <rect id="Rectangle-path" fill="#BBDBEC" fill-rule="nonzero" x="0" y="0" width="2" height="6"></rect>
                <rect id="Rectangle-path" fill="#BBDBEC" fill-rule="nonzero" x="76" y="6" width="2" height="12"></rect>
                <rect id="Rectangle-path" fill="#BBDBEC" fill-rule="nonzero" transform="translate(75.304690, 4.704684) rotate(-45.000000) translate(-75.304690, -4.704684) " x="74.30469" y="1.87968357" width="2" height="5.6500001"></rect>
                <rect id="Rectangle-path" fill="#BBDBEC" fill-rule="nonzero" x="2" y="2" width="72" height="2"></rect>
                <polyline id="Shape" stroke="#BBDBEC" stroke-width="2" points="80 12 77 20.8000002 74 12"></polyline>
            </g>
            <g id="Group" transform="translate(134.000000, 299.000000)">
                <g>
                    <g transform="translate(2.000000, 2.000000)"></g>
                    <rect id="Rectangle-path" stroke="#526B78" stroke-width="4" x="0" y="0" width="66" height="66" rx="3"></rect>
                </g>
                <g transform="translate(10.000000, 19.000000)" fill="#FFFFFF" font-family="Helvetica" font-size="22" font-weight="normal" id=".sass">
                    <text>
                        <tspan x="0.076" y="21">.sass</tspan>
                    </text>
                </g>
            </g>
            <g id="Group" transform="translate(134.000000, 187.000000)">
                <g>
                    <g transform="translate(2.000000, 2.000000)"></g>
                    <rect id="Rectangle-path" stroke="#526B78" stroke-width="4" x="0" y="0" width="66" height="66" rx="3"></rect>
                </g>
                <g transform="translate(10.000000, 19.000000)" fill="#FFFFFF" font-family="Helvetica" font-size="22" font-weight="normal" id=".sass">
                    <text>
                        <tspan x="0.076" y="21">.sass</tspan>
                    </text>
                </g>
            </g>
            <g id="Group" transform="translate(202.000000, 111.000000)">
                <rect id="Rectangle-path" fill="#BBDBEC" fill-rule="nonzero" x="0" y="0" width="2" height="6"></rect>
                <rect id="Rectangle-path" fill="#BBDBEC" fill-rule="nonzero" x="76" y="113" width="2" height="12"></rect>
                <rect id="Rectangle-path" fill="#BBDBEC" fill-rule="nonzero" transform="translate(75.304690, 111.704683) rotate(-45.000000) translate(-75.304690, -111.704683) " x="74.3046898" y="108.879683" width="2" height="5.6500001"></rect>
                <rect id="Rectangle-path" fill="#BBDBEC" fill-rule="nonzero" x="26" y="109" width="48" height="2"></rect>
                <rect id="Rectangle-path" fill="#BBDBEC" fill-rule="nonzero" transform="translate(24.704683, 108.304690) rotate(-45.000000) translate(-24.704683, -108.304690) " x="23.7046834" y="105.47969" width="2" height="5.6500001"></rect>
                <rect id="Rectangle-path" fill="#BBDBEC" fill-rule="nonzero" x="22" y="6" width="2" height="101"></rect>
                <rect id="Rectangle-path" fill="#BBDBEC" fill-rule="nonzero" transform="translate(21.304690, 4.704684) rotate(-45.000000) translate(-21.304690, -4.704684) " x="20.30469" y="1.87968357" width="2" height="5.6500001"></rect>
                <rect id="Rectangle-path" fill="#BBDBEC" fill-rule="nonzero" x="2" y="2" width="18" height="2"></rect>
                <polyline id="Shape" stroke="#BBDBEC" stroke-width="2" points="80 118 77 126.8 74 118"></polyline>
            </g>
            <g id="Group" transform="translate(202.000000, 99.000000)">
                <rect id="Rectangle-path" fill="#BBDBEC" fill-rule="nonzero" x="0" y="0" width="2" height="6"></rect>
                <rect id="Rectangle-path" fill="#BBDBEC" fill-rule="nonzero" x="76" y="6" width="2" height="19"></rect>
                <rect id="Rectangle-path" fill="#BBDBEC" fill-rule="nonzero" transform="translate(75.304690, 4.704684) rotate(-45.000000) translate(-75.304690, -4.704684) " x="74.30469" y="1.87968357" width="2" height="5.6500001"></rect>
                <rect id="Rectangle-path" fill="#BBDBEC" fill-rule="nonzero" x="2" y="2" width="72" height="2"></rect>
                <polyline id="Shape" stroke="#BBDBEC" stroke-width="2" points="80 18 77 26.8000002 74 18"></polyline>
            </g>
            <g id="Group" transform="translate(134.000000, 75.000000)">
                <g>
                    <g transform="translate(2.000000, 2.000000)"></g>
                    <rect id="Rectangle-path" stroke="#526B78" stroke-width="4" x="0" y="0" width="66" height="66" rx="3"></rect>
                </g>
                <g transform="translate(22.000000, 19.000000)" fill="#FFFFFF" font-family="Helvetica" font-size="22" font-weight="normal" id=".js">
                    <text>
                        <tspan x="0" y="21">.js</tspan>
                    </text>
                </g>
            </g>
            <g id="Group" transform="translate(130.000000, 380.500000) scale(-1, 1) rotate(-180.000000) translate(-130.000000, -380.500000) translate(90.000000, 370.000000)">
                <rect id="Rectangle-path" fill="#BBDBEC" fill-rule="nonzero" x="0" y="0" width="2" height="6"></rect>
                <rect id="Rectangle-path" fill="#BBDBEC" fill-rule="nonzero" x="76" y="6" width="2" height="12"></rect>
                <rect id="Rectangle-path" fill="#BBDBEC" fill-rule="nonzero" transform="translate(75.304690, 4.704684) rotate(-45.000000) translate(-75.304690, -4.704684) " x="74.30469" y="1.87968357" width="2" height="5.6500001"></rect>
                <rect id="Rectangle-path" fill="#BBDBEC" fill-rule="nonzero" x="2" y="2" width="72" height="2"></rect>
                <polyline id="Shape" stroke="#BBDBEC" stroke-width="2" points="80 12 77 20.8000002 74 12"></polyline>
            </g>
            <g id="Group" transform="translate(22.000000, 355.000000)">
                <g>
                    <g transform="translate(2.000000, 2.000000)"></g>
                    <rect id="Rectangle-path" stroke="#526B78" stroke-width="4" x="0" y="0" width="66" height="66" rx="3"></rect>
                </g>
                <g transform="translate(10.000000, 19.000000)" fill="#FFFFFF" font-family="Helvetica" font-size="22" font-weight="normal" id=".sass">
                    <text>
                        <tspan x="0.076" y="21">.sass</tspan>
                    </text>
                </g>
            </g>
            <g id="Group" transform="translate(90.000000, 273.000000)">
                <rect id="Rectangle-path" fill="#BBDBEC" fill-rule="nonzero" x="0" y="0" width="2" height="6"></rect>
                <rect id="Rectangle-path" fill="#BBDBEC" fill-rule="nonzero" x="76" y="6" width="2" height="12"></rect>
                <rect id="Rectangle-path" fill="#BBDBEC" fill-rule="nonzero" transform="translate(75.304690, 4.704684) rotate(-45.000000) translate(-75.304690, -4.704684) " x="74.30469" y="1.87968357" width="2" height="5.6500001"></rect>
                <rect id="Rectangle-path" fill="#BBDBEC" fill-rule="nonzero" x="2" y="2" width="72" height="2"></rect>
                <polyline id="Shape" stroke="#BBDBEC" stroke-width="2" points="80 12 77 20.8000002 74 12"></polyline>
            </g>
            <g id="Group" transform="translate(22.000000, 243.000000)">
                <g>
                    <g transform="translate(2.000000, 2.000000)"></g>
                    <rect id="Rectangle-path" stroke="#526B78" stroke-width="4" x="0" y="0" width="66" height="66" rx="3"></rect>
                </g>
                <g transform="translate(17.000000, 19.000000)" fill="#FFFFFF" font-family="Helvetica" font-size="22" font-weight="normal" id=".cjs">
                    <text>
                        <tspan x="0.38" y="21">.cjs</tspan>
                    </text>
                </g>
            </g>
            <g id="Group" transform="translate(58.000000, 217.000000)">
                <rect id="Rectangle-path" fill="#BBDBEC" fill-rule="nonzero" x="0" y="22" width="6" height="2"></rect>
                <rect id="Rectangle-path" fill="#BBDBEC" fill-rule="nonzero" x="2" y="6" width="2" height="16"></rect>
                <rect id="Rectangle-path" fill="#BBDBEC" fill-rule="nonzero" transform="translate(4.704683, 4.704684) rotate(45.000000) translate(-4.704683, -4.704684) " x="3.704683" y="1.87968361" width="2" height="5.6500001"></rect>
                <rect id="Rectangle-path" fill="#BBDBEC" fill-rule="nonzero" x="6" y="2" width="62" height="2"></rect>
                <polyline id="Shape" stroke="#BBDBEC" stroke-width="2" transform="translate(66.400000, 3.000000) rotate(-90.000000) translate(-66.400000, -3.000000) " points="69.4 -1.4000002 66.4 7.4 63.4 -1.4000002"></polyline>
            </g>
            <g id="Group" transform="translate(46.000000, 199.000000)">
                <polyline id="Shape" stroke="#BBDBEC" stroke-width="2" points="6 30 3 38.8000002 0 30"></polyline>
                <rect id="Rectangle-path" fill="#BBDBEC" fill-rule="nonzero" x="2" y="0" width="2" height="39"></rect>
                <rect id="Rectangle-path" fill="#BBDBEC" fill-rule="nonzero" x="0" y="0" width="6" height="2"></rect>
            </g>
            <g id="Group" transform="translate(130.000000, 156.500000) scale(-1, 1) rotate(-180.000000) translate(-130.000000, -156.500000) translate(90.000000, 146.000000)">
                <rect id="Rectangle-path" fill="#BBDBEC" fill-rule="nonzero" x="0" y="0" width="2" height="6"></rect>
                <rect id="Rectangle-path" fill="#BBDBEC" fill-rule="nonzero" x="76" y="6" width="2" height="12"></rect>
                <rect id="Rectangle-path" fill="#BBDBEC" fill-rule="nonzero" transform="translate(75.304690, 4.704684) rotate(-45.000000) translate(-75.304690, -4.704684) " x="74.30469" y="1.87968357" width="2" height="5.6500001"></rect>
                <rect id="Rectangle-path" fill="#BBDBEC" fill-rule="nonzero" x="2" y="2" width="72" height="2"></rect>
                <polyline id="Shape" stroke="#BBDBEC" stroke-width="2" points="80 12 77 20.8000002 74 12"></polyline>
            </g>
            <g id="Group" transform="translate(22.000000, 131.000000)">
                <g>
                    <g transform="translate(2.000000, 2.000000)"></g>
                    <rect id="Rectangle-path" stroke="#526B78" stroke-width="4" x="0" y="0" width="66" height="66" rx="3"></rect>
                </g>
                <g transform="translate(12.000000, 19.000000)" fill="#FFFFFF" font-family="Helvetica" font-size="22" font-weight="normal" id=".hbs">
                    <text>
                        <tspan x="0.947" y="21">.hbs</tspan>
                    </text>
                </g>
            </g>
            <g id="Group" transform="translate(52.000000, 87.000000)">
                <polyline id="Shape" stroke="#BBDBEC" stroke-width="2" points="6 30 3 38.8000002 0 30"></polyline>
                <rect id="Rectangle-path" fill="#BBDBEC" fill-rule="nonzero" x="2" y="0" width="2" height="39"></rect>
                <rect id="Rectangle-path" fill="#BBDBEC" fill-rule="nonzero" x="0" y="0" width="6" height="2"></rect>
            </g>
            <g id="Group" transform="translate(22.000000, 19.000000)">
                <g>
                    <g transform="translate(2.000000, 2.000000)"></g>
                    <rect id="Rectangle-path" stroke="#526B78" stroke-width="4" x="0" y="0" width="66" height="66" rx="3"></rect>
                </g>
                <g transform="translate(22.000000, 19.000000)" fill="#FFFFFF" font-family="Helvetica" font-size="22" font-weight="normal" id=".js">
                    <text>
                        <tspan x="0" y="21">.js</tspan>
                    </text>
                </g>
            </g>
        </g>
    </g>
</svg>